<svg width="1204" height="632" viewBox="0 0 1204 632" fill="none" xmlns="http://www.w3.org/2000/svg">
<g clip-path="url(#clip0_16_3536)">
<rect width="1204" height="632" fill="#0C0C0D"/>
<path d="M103.675 295.545H109.801L120.452 321.551H120.844L131.494 295.545H137.62V329H132.817V304.791H132.507L122.641 328.951H118.655L108.788 304.775H108.478V329H103.675V295.545ZM155.135 329.506C152.783 329.506 150.73 328.967 148.977 327.889C147.224 326.811 145.863 325.303 144.893 323.364C143.924 321.426 143.439 319.161 143.439 316.569C143.439 313.966 143.924 311.69 144.893 309.741C145.863 307.791 147.224 306.278 148.977 305.2C150.73 304.121 152.783 303.582 155.135 303.582C157.488 303.582 159.541 304.121 161.294 305.2C163.047 306.278 164.408 307.791 165.378 309.741C166.347 311.69 166.831 313.966 166.831 316.569C166.831 319.161 166.347 321.426 165.378 323.364C164.408 325.303 163.047 326.811 161.294 327.889C159.541 328.967 157.488 329.506 155.135 329.506ZM155.152 325.406C156.676 325.406 157.94 325.003 158.942 324.197C159.943 323.392 160.684 322.319 161.163 320.979C161.653 319.64 161.898 318.164 161.898 316.553C161.898 314.952 161.653 313.482 161.163 312.142C160.684 310.792 159.943 309.708 158.942 308.891C157.94 308.075 156.676 307.666 155.152 307.666C153.616 307.666 152.342 308.075 151.329 308.891C150.327 309.708 149.581 310.792 149.091 312.142C148.612 313.482 148.373 314.952 148.373 316.553C148.373 318.164 148.612 319.64 149.091 320.979C149.581 322.319 150.327 323.392 151.329 324.197C152.342 325.003 153.616 325.406 155.152 325.406ZM181.676 329.49C179.651 329.49 177.843 328.973 176.253 327.938C174.674 326.893 173.432 325.406 172.528 323.479C171.635 321.54 171.189 319.215 171.189 316.504C171.189 313.792 171.641 311.472 172.545 309.545C173.46 307.617 174.712 306.142 176.302 305.118C177.892 304.094 179.694 303.582 181.709 303.582C183.266 303.582 184.518 303.844 185.466 304.366C186.424 304.878 187.165 305.477 187.688 306.163C188.221 306.849 188.635 307.454 188.929 307.977H189.223V295.545H194.107V329H189.337V325.096H188.929C188.635 325.629 188.21 326.239 187.655 326.925C187.11 327.612 186.359 328.21 185.401 328.722C184.442 329.234 183.201 329.49 181.676 329.49ZM182.754 325.325C184.159 325.325 185.346 324.954 186.315 324.214C187.295 323.462 188.036 322.422 188.537 321.094C189.049 319.765 189.305 318.219 189.305 316.455C189.305 314.712 189.054 313.187 188.553 311.881C188.052 310.574 187.317 309.556 186.348 308.826C185.379 308.096 184.181 307.732 182.754 307.732C181.284 307.732 180.059 308.113 179.079 308.875C178.099 309.637 177.358 310.677 176.857 311.995C176.367 313.313 176.122 314.799 176.122 316.455C176.122 318.132 176.373 319.64 176.874 320.979C177.375 322.319 178.115 323.381 179.095 324.165C180.086 324.938 181.306 325.325 182.754 325.325ZM216.972 318.594V303.909H221.873V329H217.07V324.655H216.809C216.232 325.994 215.306 327.111 214.032 328.004C212.769 328.886 211.195 329.327 209.311 329.327C207.7 329.327 206.273 328.973 205.031 328.265C203.801 327.546 202.832 326.484 202.124 325.08C201.427 323.675 201.078 321.938 201.078 319.869V303.909H205.963V319.281C205.963 320.99 206.436 322.352 207.384 323.364C208.331 324.377 209.562 324.884 211.075 324.884C211.99 324.884 212.9 324.655 213.803 324.197C214.718 323.74 215.475 323.049 216.074 322.123C216.684 321.197 216.983 320.021 216.972 318.594ZM233.32 295.545V329H228.436V295.545H233.32ZM250.705 329.506C248.233 329.506 246.104 328.978 244.318 327.922C242.543 326.855 241.17 325.357 240.201 323.43C239.243 321.491 238.764 319.221 238.764 316.618C238.764 314.048 239.243 311.783 240.201 309.822C241.17 307.862 242.521 306.332 244.252 305.232C245.995 304.132 248.031 303.582 250.362 303.582C251.777 303.582 253.15 303.817 254.478 304.285C255.807 304.753 256.999 305.488 258.056 306.49C259.112 307.492 259.945 308.793 260.555 310.394C261.165 311.984 261.47 313.917 261.47 316.193V317.925H241.524V314.266H256.683C256.683 312.981 256.422 311.843 255.899 310.852C255.377 309.85 254.642 309.06 253.694 308.483C252.758 307.906 251.658 307.617 250.394 307.617C249.022 307.617 247.824 307.955 246.801 308.63C245.788 309.294 245.004 310.165 244.448 311.244C243.904 312.311 243.632 313.471 243.632 314.723V317.582C243.632 319.259 243.926 320.685 244.514 321.862C245.113 323.038 245.946 323.936 247.013 324.557C248.08 325.167 249.327 325.472 250.754 325.472C251.679 325.472 252.523 325.341 253.286 325.08C254.048 324.807 254.707 324.404 255.262 323.871C255.818 323.337 256.242 322.678 256.536 321.894L261.159 322.727C260.789 324.089 260.125 325.281 259.166 326.305C258.219 327.317 257.026 328.107 255.589 328.673C254.162 329.229 252.534 329.506 250.705 329.506ZM279.063 329V303.909H283.947V329H279.063ZM281.529 300.038C280.68 300.038 279.95 299.754 279.34 299.188C278.741 298.611 278.442 297.925 278.442 297.13C278.442 296.324 278.741 295.638 279.34 295.072C279.95 294.495 280.68 294.206 281.529 294.206C282.379 294.206 283.103 294.495 283.702 295.072C284.312 295.638 284.617 296.324 284.617 297.13C284.617 297.925 284.312 298.611 283.702 299.188C283.103 299.754 282.379 300.038 281.529 300.038ZM303.145 295.545V329H298.081V300.609H297.885L289.881 305.837V301.001L298.228 295.545H303.145ZM323.499 329.457C321.157 329.457 319.088 329.054 317.291 328.249C315.505 327.443 314.106 326.332 313.093 324.916C312.08 323.5 311.579 321.889 311.59 320.081C311.579 318.665 311.868 317.364 312.456 316.177C313.055 314.979 313.866 313.982 314.89 313.188C315.914 312.382 317.057 311.87 318.32 311.652V311.456C316.654 311.053 315.32 310.16 314.318 308.777C313.316 307.394 312.821 305.804 312.832 304.007C312.821 302.297 313.273 300.773 314.188 299.433C315.113 298.083 316.382 297.021 317.994 296.248C319.605 295.475 321.44 295.088 323.499 295.088C325.535 295.088 327.354 295.48 328.955 296.264C330.566 297.037 331.835 298.099 332.761 299.45C333.686 300.789 334.155 302.308 334.165 304.007C334.155 305.804 333.643 307.394 332.63 308.777C331.617 310.16 330.299 311.053 328.677 311.456V311.652C329.929 311.87 331.056 312.382 332.058 313.188C333.071 313.982 333.877 314.979 334.476 316.177C335.086 317.364 335.396 318.665 335.407 320.081C335.396 321.889 334.884 323.5 333.871 324.916C332.859 326.332 331.454 327.443 329.657 328.249C327.871 329.054 325.818 329.457 323.499 329.457ZM323.499 325.325C324.882 325.325 326.08 325.096 327.092 324.638C328.105 324.17 328.889 323.522 329.445 322.695C330 321.856 330.283 320.876 330.294 319.754C330.283 318.589 329.978 317.56 329.379 316.667C328.791 315.774 327.991 315.071 326.978 314.56C325.965 314.048 324.805 313.792 323.499 313.792C322.181 313.792 321.01 314.048 319.987 314.56C318.963 315.071 318.157 315.774 317.569 316.667C316.981 317.56 316.692 318.589 316.703 319.754C316.692 320.876 316.959 321.856 317.504 322.695C318.059 323.522 318.848 324.17 319.872 324.638C320.896 325.096 322.105 325.325 323.499 325.325ZM323.499 309.757C324.609 309.757 325.595 309.534 326.455 309.087C327.316 308.641 327.991 308.02 328.481 307.225C328.982 306.43 329.238 305.499 329.249 304.432C329.238 303.386 328.987 302.472 328.497 301.688C328.018 300.903 327.348 300.299 326.488 299.874C325.628 299.439 324.631 299.221 323.499 299.221C322.344 299.221 321.331 299.439 320.46 299.874C319.6 300.299 318.93 300.903 318.451 301.688C317.972 302.472 317.738 303.386 317.749 304.432C317.738 305.499 317.977 306.43 318.467 307.225C318.957 308.02 319.633 308.641 320.493 309.087C321.364 309.534 322.366 309.757 323.499 309.757ZM346.209 314.102V329H341.324V303.909H346.013V307.993H346.323C346.9 306.664 347.804 305.597 349.035 304.791C350.276 303.985 351.839 303.582 353.723 303.582C355.433 303.582 356.93 303.942 358.215 304.661C359.5 305.368 360.497 306.425 361.204 307.83C361.912 309.234 362.266 310.971 362.266 313.04V329H357.382V313.629C357.382 311.81 356.908 310.389 355.961 309.365C355.013 308.33 353.712 307.813 352.057 307.813C350.924 307.813 349.917 308.058 349.035 308.548C348.163 309.038 347.472 309.757 346.96 310.705C346.459 311.641 346.209 312.774 346.209 314.102ZM392.931 303.909V307.83H378.752V303.909H392.931ZM382.64 329V301.001C382.64 299.433 382.983 298.132 383.669 297.097C384.355 296.052 385.265 295.273 386.397 294.761C387.53 294.239 388.761 293.977 390.089 293.977C391.069 293.977 391.908 294.059 392.605 294.222C393.302 294.375 393.819 294.516 394.157 294.647L393.013 298.6C392.784 298.535 392.49 298.459 392.131 298.371C391.772 298.273 391.336 298.224 390.824 298.224C389.637 298.224 388.788 298.518 388.276 299.107C387.775 299.695 387.525 300.544 387.525 301.655V329H382.64ZM407.551 329.506C405.199 329.506 403.146 328.967 401.393 327.889C399.64 326.811 398.279 325.303 397.309 323.364C396.34 321.426 395.855 319.161 395.855 316.569C395.855 313.966 396.34 311.69 397.309 309.741C398.279 307.791 399.64 306.278 401.393 305.2C403.146 304.121 405.199 303.582 407.551 303.582C409.904 303.582 411.957 304.121 413.71 305.2C415.463 306.278 416.824 307.791 417.794 309.741C418.763 311.69 419.248 313.966 419.248 316.569C419.248 319.161 418.763 321.426 417.794 323.364C416.824 325.303 415.463 326.811 413.71 327.889C411.957 328.967 409.904 329.506 407.551 329.506ZM407.568 325.406C409.092 325.406 410.356 325.003 411.358 324.197C412.359 323.392 413.1 322.319 413.579 320.979C414.069 319.64 414.314 318.164 414.314 316.553C414.314 314.952 414.069 313.482 413.579 312.142C413.1 310.792 412.359 309.708 411.358 308.891C410.356 308.075 409.092 307.666 407.568 307.666C406.032 307.666 404.758 308.075 403.745 308.891C402.743 309.708 401.998 310.792 401.507 312.142C401.028 313.482 400.789 314.952 400.789 316.553C400.789 318.164 401.028 319.64 401.507 320.979C401.998 322.319 402.743 323.392 403.745 324.197C404.758 325.003 406.032 325.406 407.568 325.406ZM424.699 329V303.909H429.42V307.895H429.682C430.139 306.545 430.945 305.483 432.099 304.71C433.265 303.925 434.582 303.533 436.052 303.533C436.357 303.533 436.717 303.544 437.131 303.566C437.555 303.588 437.887 303.615 438.127 303.648V308.32C437.931 308.265 437.582 308.205 437.081 308.14C436.581 308.064 436.08 308.026 435.579 308.026C434.424 308.026 433.395 308.271 432.491 308.761C431.598 309.24 430.89 309.91 430.368 310.77C429.845 311.619 429.584 312.589 429.584 313.678V329H424.699ZM481.922 295.545V329H477.282L460.278 304.464H459.967V329H454.92V295.545H459.591L476.613 320.114H476.923V295.545H481.922ZM504.787 318.594V303.909H509.688V329H504.885V324.655H504.624C504.046 325.994 503.121 327.111 501.847 328.004C500.583 328.886 499.01 329.327 497.126 329.327C495.514 329.327 494.087 328.973 492.846 328.265C491.615 327.546 490.646 326.484 489.938 325.08C489.241 323.675 488.893 321.938 488.893 319.869V303.909H493.777V319.281C493.777 320.99 494.251 322.352 495.198 323.364C496.146 324.377 497.376 324.884 498.89 324.884C499.805 324.884 500.714 324.655 501.618 324.197C502.533 323.74 503.29 323.049 503.888 322.123C504.498 321.197 504.798 320.021 504.787 318.594ZM520.105 303.909L525.643 313.678L531.23 303.909H536.571L528.747 316.455L536.637 329H531.295L525.643 319.624L520.007 329H514.649L522.458 316.455L514.747 303.909H520.105ZM553.298 303.909V307.83H539.593V303.909H553.298ZM543.269 297.898H548.153V321.633C548.153 322.58 548.294 323.294 548.578 323.773C548.861 324.241 549.226 324.562 549.672 324.737C550.129 324.9 550.625 324.982 551.159 324.982C551.551 324.982 551.894 324.954 552.188 324.9C552.482 324.845 552.71 324.802 552.874 324.769L553.756 328.804C553.473 328.913 553.07 329.022 552.547 329.131C552.024 329.25 551.371 329.316 550.587 329.327C549.302 329.348 548.104 329.12 546.993 328.641C545.882 328.161 544.984 327.421 544.298 326.419C543.612 325.417 543.269 324.159 543.269 322.646V297.898Z" fill="#E4E4E7"/>
<path d="M155.408 175.909V237H144.251L117.673 198.55H117.226V237H104.31V175.909H115.645L142.014 214.33H142.551V175.909H155.408ZM195.223 217.491V191.182H207.93V237H195.73V228.678H195.252C194.218 231.362 192.498 233.52 190.092 235.151C187.706 236.781 184.792 237.597 181.352 237.597C178.289 237.597 175.595 236.901 173.268 235.509C170.941 234.116 169.122 232.138 167.809 229.572C166.517 227.007 165.86 223.935 165.841 220.355V191.182H178.548V218.088C178.568 220.793 179.294 222.93 180.725 224.501C182.157 226.072 184.076 226.858 186.483 226.858C188.014 226.858 189.446 226.51 190.778 225.814C192.11 225.098 193.184 224.044 194 222.652C194.835 221.26 195.243 219.54 195.223 217.491ZM228.714 191.182L237.126 207.2L245.746 191.182H258.782L245.508 214.091L259.14 237H246.164L237.126 221.161L228.237 237H215.112L228.714 214.091L215.589 191.182H228.714ZM290.7 191.182V200.727H263.107V191.182H290.7ZM269.371 180.205H282.079V222.92C282.079 224.094 282.258 225.009 282.616 225.665C282.974 226.301 283.471 226.749 284.107 227.007C284.763 227.266 285.519 227.395 286.374 227.395C286.971 227.395 287.567 227.345 288.164 227.246C288.761 227.126 289.218 227.037 289.536 226.977L291.535 236.433C290.898 236.632 290.004 236.861 288.85 237.119C287.697 237.398 286.295 237.567 284.644 237.626C281.582 237.746 278.897 237.338 276.59 236.403C274.303 235.469 272.523 234.017 271.251 232.048C269.978 230.08 269.352 227.594 269.371 224.591V180.205Z" fill="white"/>
<path d="M331.574 175.909V237H318.657V175.909H331.574ZM368.42 175.909V237H355.504V188.169H355.146L341.156 196.939V185.484L356.28 175.909H368.42ZM405.73 237.835C401.136 237.835 397.049 237.089 393.47 235.598C389.91 234.087 387.116 232.028 385.088 229.423C383.059 226.818 382.045 223.865 382.045 220.564C382.045 218.018 382.622 215.682 383.775 213.554C384.949 211.406 386.539 209.626 388.548 208.214C390.556 206.783 392.804 205.868 395.289 205.47V205.053C392.028 204.396 389.383 202.815 387.355 200.31C385.326 197.784 384.312 194.851 384.312 191.51C384.312 188.348 385.237 185.534 387.086 183.068C388.936 180.582 391.471 178.634 394.693 177.222C397.934 175.79 401.613 175.074 405.73 175.074C409.846 175.074 413.515 175.79 416.737 177.222C419.978 178.653 422.524 180.612 424.373 183.098C426.223 185.564 427.157 188.368 427.177 191.51C427.157 194.871 426.123 197.804 424.075 200.31C422.027 202.815 419.402 204.396 416.2 205.053V205.47C418.646 205.868 420.863 206.783 422.852 208.214C424.86 209.626 426.451 211.406 427.625 213.554C428.818 215.682 429.424 218.018 429.444 220.564C429.424 223.865 428.4 226.818 426.372 229.423C424.343 232.028 421.539 234.087 417.96 235.598C414.4 237.089 410.324 237.835 405.73 237.835ZM405.73 228.349C407.778 228.349 409.568 227.982 411.099 227.246C412.63 226.49 413.824 225.456 414.679 224.143C415.554 222.811 415.991 221.28 415.991 219.55C415.991 217.78 415.544 216.219 414.649 214.866C413.754 213.494 412.541 212.42 411.01 211.645C409.478 210.849 407.718 210.452 405.73 210.452C403.761 210.452 402.001 210.849 400.45 211.645C398.899 212.42 397.676 213.494 396.781 214.866C395.906 216.219 395.468 217.78 395.468 219.55C395.468 221.28 395.896 222.811 396.751 224.143C397.606 225.456 398.809 226.49 400.36 227.246C401.912 227.982 403.701 228.349 405.73 228.349ZM405.73 201.055C407.44 201.055 408.961 200.707 410.294 200.011C411.626 199.315 412.67 198.351 413.426 197.118C414.181 195.885 414.559 194.463 414.559 192.852C414.559 191.261 414.181 189.869 413.426 188.676C412.67 187.463 411.636 186.518 410.324 185.842C409.011 185.146 407.48 184.798 405.73 184.798C404 184.798 402.468 185.146 401.136 185.842C399.804 186.518 398.76 187.463 398.004 188.676C397.268 189.869 396.9 191.261 396.9 192.852C396.9 194.463 397.278 195.885 398.034 197.118C398.789 198.351 399.833 199.315 401.166 200.011C402.498 200.707 404.02 201.055 405.73 201.055ZM451.302 210.511V237H438.594V191.182H450.705V199.266H451.242C452.256 196.601 453.957 194.493 456.343 192.942C458.729 191.371 461.623 190.585 465.023 190.585C468.205 190.585 470.979 191.281 473.346 192.673C475.712 194.065 477.552 196.054 478.864 198.639C480.177 201.205 480.833 204.267 480.833 207.827V237H468.126V210.094C468.146 207.29 467.43 205.102 465.978 203.531C464.526 201.94 462.528 201.145 459.982 201.145C458.272 201.145 456.761 201.513 455.448 202.249C454.156 202.984 453.141 204.058 452.406 205.47C451.69 206.862 451.322 208.543 451.302 210.511Z" fill="#00DC82"/>
<path d="M1075.42 632.4H1315.64C1323.27 632.401 1330.77 630.411 1337.38 626.629C1343.98 622.848 1349.47 617.409 1353.28 610.859C1357.1 604.309 1359.1 596.88 1359.1 589.318C1359.1 581.756 1357.08 574.328 1353.27 567.782L1191.94 290.839C1188.13 284.291 1182.64 278.853 1176.04 275.072C1169.43 271.292 1161.94 269.301 1154.31 269.301C1146.68 269.301 1139.18 271.292 1132.58 275.072C1125.97 278.853 1120.49 284.291 1116.67 290.839L1075.42 361.699L994.773 223.135C990.957 216.587 985.469 211.15 978.861 207.37C972.253 203.59 964.758 201.6 957.129 201.6C949.499 201.6 942.004 203.59 935.396 207.37C928.788 211.15 923.3 216.587 919.484 223.135L718.735 567.782C714.916 574.328 712.903 581.756 712.9 589.318C712.897 596.88 714.903 604.309 718.716 610.859C722.529 617.409 728.016 622.848 734.623 626.629C741.231 630.411 748.726 632.401 756.356 632.4H907.146C966.891 632.4 1010.95 606.39 1041.27 555.647L1114.87 429.31L1154.3 361.699L1272.61 564.789H1114.87L1075.42 632.4ZM904.688 564.719L799.456 564.696L957.199 293.925L1035.91 429.31L983.208 519.799C963.075 552.723 940.202 564.719 904.688 564.719Z" fill="#00DC82"/>
</g>
<defs>
<clipPath id="clip0_16_3536">
<rect width="1204" height="632" fill="white"/>
</clipPath>
</defs>
</svg>
