<?xml version="1.0" encoding="UTF-8" standalone="no"?>
<!DOCTYPE svg PUBLIC "-//W3C//DTD SVG 1.1//EN" "http://www.w3.org/Graphics/SVG/1.1/DTD/svg11.dtd">
<svg width="100%" height="100%" viewBox="0 0 512 512" version="1.1" xmlns="http://www.w3.org/2000/svg" xmlns:xlink="http://www.w3.org/1999/xlink" xml:space="preserve" xmlns:serif="http://www.serif.com/" style="fill-rule:evenodd;clip-rule:evenodd;stroke-linejoin:round;stroke-miterlimit:2;">
    <g transform="matrix(-1.24053,0,0,1.24053,519.443,-169.418)">
        <path d="M197.221,144.496L64.779,144.496C57.069,144.472 49.43,145.976 42.3,148.924C35.169,151.872 28.688,156.204 23.227,161.673C17.767,167.143 13.434,173.641 10.478,180.796C7.522,187.951 6,195.621 6,203.368L6,336.449C6.001,351.873 12.01,366.685 22.741,377.715C33.473,388.745 48.074,395.117 63.422,395.468L86.566,435.697C90.6,442.703 97.191,442.801 101.215,435.786L124.34,395.684L197.221,395.684C212.829,395.645 227.784,389.386 238.804,378.281C249.823,367.175 256.008,352.131 256,336.449L256,203.368C256,195.621 254.479,187.951 251.523,180.796C248.566,173.641 244.234,167.143 238.773,161.673C233.313,156.204 226.831,151.872 219.701,148.924C212.571,145.976 204.931,144.472 197.221,144.496Z" style="fill:rgb(0,20,39);fill-rule:nonzero;"/>
    </g>
    <g transform="matrix(2.20052,0,0,2.20052,-111.423,-443.462)">
        <path d="M226.906,260.527C223.369,269.823 218.679,277.556 212.756,283.973C206.422,277.31 201.568,269.412 198.03,260.527L226.906,260.527ZM250.27,260.527L250.27,250.984L217.61,250.984L217.61,237.985L207.656,237.985L207.656,250.984L175.406,250.984L175.406,260.527L187.171,260.527C191.613,272.538 197.29,282.822 204.694,291.295C196.385,297.63 186.101,302.319 173.926,305.528C175.9,307.913 178.944,312.52 180.096,315.071C192.6,311.122 203.213,305.774 212.18,298.617C220.818,305.939 231.513,311.451 244.758,314.824C246.239,312.027 249.365,307.42 251.751,305.034C239.246,302.237 228.881,297.383 220.407,290.884C227.976,282.657 233.981,272.703 238.424,260.527L250.27,260.527Z" style="fill:rgb(0,222,131);fill-rule:nonzero;"/>
    </g>
    <g transform="matrix(1.24053,0,0,1.24053,-7.4432,-44.9079)">
        <path d="M197.221,144.496L64.779,144.496C57.069,144.472 49.43,145.976 42.3,148.924C35.169,151.872 28.688,156.204 23.227,161.673C17.767,167.143 13.434,173.641 10.478,180.796C7.522,187.951 6,195.621 6,203.368L6,336.449C6.001,351.873 12.01,366.685 22.741,377.715C33.473,388.745 48.074,395.117 63.422,395.468L86.566,435.697C90.6,442.703 97.191,442.801 101.215,435.786L124.34,395.684L197.221,395.684C212.829,395.645 227.784,389.386 238.804,378.281C249.823,367.175 256.008,352.131 256,336.449L256,203.368C256,195.621 254.479,187.951 251.523,180.796C248.566,173.641 244.234,167.143 238.773,161.673C233.313,156.204 226.831,151.872 219.701,148.924C212.571,145.976 204.931,144.472 197.221,144.496Z" style="fill:rgb(0,222,131);fill-rule:nonzero;"/>
    </g>
    <g transform="matrix(2.70501,0,0,2.70501,-212.722,-459.897)">
        <path d="M129.999,309.128C124.804,309.128 120.542,308.316 117.213,306.692C113.885,304.988 111.409,302.755 109.785,299.995C108.162,297.235 107.35,294.191 107.35,290.862C107.35,285.261 109.542,280.715 113.926,277.224C118.309,273.734 124.885,271.988 133.652,271.988L148.995,271.988L148.995,270.527C148.995,266.387 147.818,263.343 145.463,261.395C143.109,259.446 140.187,258.472 136.696,258.472C133.53,258.472 130.77,259.243 128.416,260.786C126.062,262.247 124.601,264.439 124.032,267.361L108.811,267.361C109.217,262.978 110.678,259.162 113.195,255.915C115.793,252.668 119.121,250.192 123.18,248.487C127.239,246.701 131.785,245.808 136.818,245.808C145.423,245.808 152.201,247.96 157.153,252.262C162.105,256.565 164.581,262.653 164.581,270.527L164.581,307.666L151.308,307.666L149.847,297.925C148.061,301.172 145.545,303.851 142.298,305.962C139.132,308.072 135.032,309.128 129.999,309.128ZM133.53,296.951C137.995,296.951 141.445,295.49 143.88,292.567C146.397,289.645 147.98,286.032 148.629,281.73L135.357,281.73C131.217,281.73 128.254,282.501 126.468,284.043C124.682,285.505 123.789,287.331 123.789,289.523C123.789,291.877 124.682,293.704 126.468,295.003C128.254,296.301 130.608,296.951 133.53,296.951Z" style="fill:rgb(0,20,39);fill-rule:nonzero;"/>
    </g>
</svg>
