<svg width="512" height="512" viewBox="0 0 512 512" fill="none" xmlns="http://www.w3.org/2000/svg">
<path d="M288.041 144.496H64.7793C57.0691 144.472 49.4298 145.976 42.2995 148.924C35.1691 151.872 28.6879 156.204 23.2273 161.673C17.7667 167.143 13.4341 173.641 10.4779 180.796C7.52166 187.951 5.99996 195.621 6 203.368V336.449C6.00112 351.873 12.0101 366.685 22.7415 377.715C33.4728 388.745 48.0742 395.117 63.4219 395.468L86.5664 435.697C90.5996 442.703 97.1914 442.801 101.215 435.786L124.34 395.684H288.041C303.649 395.645 318.604 389.386 329.624 378.281C340.643 367.175 346.828 352.131 346.82 336.449V203.368C346.82 195.621 345.299 187.951 342.343 180.796C339.386 173.641 335.054 167.143 329.593 161.673C324.133 156.204 317.651 151.872 310.521 148.924C303.391 145.976 295.751 144.472 288.041 144.496Z" fill="#41B38A"/>
<path d="M447.25 66H223.773C208.233 66.0412 193.338 72.2524 182.335 83.2799C171.332 94.3075 165.113 109.258 165.033 124.872H288.08C298.337 124.827 308.502 126.817 317.992 130.727C327.482 134.637 336.11 140.392 343.382 147.66C350.653 154.928 356.426 163.567 360.367 173.081C364.309 182.595 366.343 192.798 366.352 203.103V317.188H384.057L404.926 353.414C408.959 360.42 415.551 360.469 419.574 353.414L440.443 317.109H447.279C462.834 317.037 477.731 310.795 488.729 299.742C499.726 288.689 505.933 273.719 506 258.09V124.529C506 92.0706 479.555 66 447.25 66Z" fill="#108775"/>
<path d="M129.999 309.128C124.804 309.128 120.542 308.316 117.213 306.692C113.885 304.988 111.409 302.755 109.785 299.995C108.162 297.235 107.35 294.191 107.35 290.862C107.35 285.261 109.542 280.715 113.926 277.224C118.309 273.734 124.885 271.988 133.652 271.988H148.995V270.527C148.995 266.387 147.818 263.343 145.463 261.395C143.109 259.446 140.187 258.472 136.696 258.472C133.53 258.472 130.77 259.243 128.416 260.786C126.062 262.247 124.601 264.439 124.032 267.361H108.811C109.217 262.978 110.678 259.162 113.195 255.915C115.793 252.668 119.121 250.192 123.18 248.487C127.239 246.701 131.785 245.808 136.818 245.808C145.423 245.808 152.201 247.96 157.153 252.262C162.105 256.565 164.581 262.653 164.581 270.527V307.666H151.308L149.847 297.925C148.061 301.172 145.545 303.851 142.298 305.962C139.132 308.072 135.032 309.128 129.999 309.128ZM133.53 296.951C137.995 296.951 141.445 295.49 143.88 292.567C146.397 289.645 147.98 286.032 148.629 281.73H135.357C131.217 281.73 128.254 282.501 126.468 284.043C124.682 285.505 123.789 287.331 123.789 289.523C123.789 291.877 124.682 293.704 126.468 295.003C128.254 296.301 130.608 296.951 133.53 296.951Z" fill="white"/>
<path d="M226.906 260.527C223.369 269.823 218.679 277.556 212.756 283.973C206.422 277.31 201.568 269.412 198.03 260.527H226.906ZM250.27 260.527V250.984H217.61V237.985H207.656V250.984H175.406V260.527H187.171C191.613 272.538 197.29 282.822 204.694 291.295C196.385 297.63 186.101 302.319 173.926 305.528C175.9 307.913 178.944 312.52 180.096 315.071C192.6 311.122 203.213 305.774 212.18 298.617C220.818 305.939 231.513 311.451 244.758 314.824C246.239 312.027 249.365 307.42 251.751 305.034C239.246 302.237 228.881 297.383 220.407 290.884C227.976 282.657 233.981 272.703 238.424 260.527H250.27Z" fill="white"/>
</svg>
