<?xml version="1.0" encoding="UTF-8" standalone="no"?>
<svg version="1.1" xmlns="http://www.w3.org/2000/svg" xmlns:xlink="http://www.w3.org/1999/xlink" preserveAspectRatio="xMidYMid meet" viewBox="0 0 500 450" width="500" height="450"><defs><path d="M449.22 0C483.07 0 500 17.41 500 52.23C500 259.55 500 374.73 500 397.77C500 432.59 483.07 450 449.22 450C210.16 450 77.34 450 50.78 450C16.93 450 0 432.59 0 397.77C0 190.45 0 75.27 0 52.23C0 17.41 16.93 0 50.78 0C289.84 0 422.66 0 449.22 0Z" id="a9P5mCJG7"></path><path d="M403.94 58.44C430.1 58.44 443.18 71.33 443.18 97.11C443.18 250.58 443.18 335.84 443.18 352.89C443.18 378.67 430.1 391.56 403.94 391.56C219.21 391.56 116.58 391.56 96.06 391.56C69.9 391.56 56.82 378.67 56.82 352.89C56.82 199.42 56.82 114.16 56.82 97.11C56.82 71.33 69.9 58.44 96.06 58.44C280.79 58.44 383.42 58.44 403.94 58.44Z" id="c43lOFNonQ"></path><path d="M246.03 386.2L246.03 450L180.99 386.2L246.03 386.2Z" id="arDPyUkiM"></path><path d="M257.63 176.56L221.51 113.06L112.09 307.97C154.96 307.97 178.87 307.97 183.81 307.97C183.81 309.84 200.05 326.53 202.8 326.53C193.59 326.53 121.31 326.53 112.09 326.53C105.65 326.53 99.69 322.99 96.47 317.25C93.24 311.51 93.24 304.43 96.47 298.69C107.41 279.2 194.94 123.27 205.89 103.78C209.11 98.04 215.07 94.5 221.52 94.5C227.96 94.5 233.92 98.04 237.14 103.78C239.17 107.39 249.16 125.79 267.11 158.97L257.63 176.56Z" id="ccchA8vgC"></path><path d="M379.97 326.53C375.07 326.53 308.65 326.53 290.81 326.53C290.7 326.53 290.66 326.39 290.74 326.32C298.56 320.06 304.97 313.95 309.96 307.97C312.02 307.97 335.35 307.97 379.93 307.97L292.09 151.48L273.25 180.97L257.59 176.6C269.58 154.72 275.87 143.25 276.46 142.2C279.69 136.45 285.64 132.91 292.09 132.91C298.54 132.91 304.5 136.45 307.72 142.2C316.51 157.85 386.81 283.04 395.6 298.69C398.82 304.43 398.82 311.51 395.6 317.25C392.37 322.99 386.42 326.53 379.97 326.53Z" id="b16JVgsCvN"></path><path d="M315.28 299.79L177.97 299.79L315.28 299.79Z" id="br9YU2Ia"></path><path d="M246.81 340.06C202.85 340.06 167.21 303.4 167.21 258.18C167.21 212.96 202.85 176.31 246.81 176.31C290.78 176.31 326.42 212.96 326.42 258.18C326.42 303.4 290.78 340.06 246.81 340.06Z" id="b2SJnUJShT"></path><path d="M316.73 219.3L176.52 219.3L316.73 219.3Z" id="e1qWladDpB"></path><path d="M246.09 176.67L246.09 339.75L246.09 176.67Z" id="beWlaDHKO"></path><path d="M323.55 262.35L167.82 262.35L323.55 262.35Z" id="eylw5J8cs"></path><path d="M284.31 258.36C284.31 213.07 267.34 176.36 246.41 176.36C225.48 176.36 208.51 213.07 208.51 258.36C208.51 303.66 225.48 340.37 246.41 340.37C267.34 340.37 284.31 303.66 284.31 258.36Z" id="d3xelRE6w"></path></defs><g><g><g><use xlink:href="#a9P5mCJG7" opacity="1" fill="#42b983" fill-opacity="1"></use><g><use xlink:href="#a9P5mCJG7" opacity="1" fill-opacity="0" stroke="#000000" stroke-width="0.45" stroke-opacity="0"></use></g></g><g><use xlink:href="#c43lOFNonQ" opacity="1" fill="#34495e" fill-opacity="1"></use><g><use xlink:href="#c43lOFNonQ" opacity="1" fill-opacity="0" stroke="#000000" stroke-width="0.45" stroke-opacity="0"></use></g></g><g><use xlink:href="#arDPyUkiM" opacity="1" fill="#34495e" fill-opacity="1"></use><g><use xlink:href="#arDPyUkiM" opacity="1" fill-opacity="0" stroke="#000000" stroke-width="5.4" stroke-opacity="0"></use></g></g><g><use xlink:href="#ccchA8vgC" opacity="1" fill="#00c58e" fill-opacity="1"></use><g><use xlink:href="#ccchA8vgC" opacity="1" fill-opacity="0" stroke="#000000" stroke-width="1" stroke-opacity="0"></use></g></g><g><use xlink:href="#b16JVgsCvN" opacity="1" fill="#108775" fill-opacity="1"></use><g><use xlink:href="#b16JVgsCvN" opacity="1" fill-opacity="0" stroke="#000000" stroke-width="1" stroke-opacity="0"></use></g></g><g><use xlink:href="#br9YU2Ia" opacity="1" fill="#000000" fill-opacity="0"></use><g><use xlink:href="#br9YU2Ia" opacity="1" fill-opacity="0" stroke="#ffffff" stroke-width="10" stroke-opacity="1"></use></g></g><g><use xlink:href="#b2SJnUJShT" opacity="1" fill="#000000" fill-opacity="0"></use><g><use xlink:href="#b2SJnUJShT" opacity="1" fill-opacity="0" stroke="#ffffff" stroke-width="10" stroke-opacity="1"></use></g></g><g><use xlink:href="#e1qWladDpB" opacity="1" fill="#000000" fill-opacity="0"></use><g><use xlink:href="#e1qWladDpB" opacity="1" fill-opacity="0" stroke="#ffffff" stroke-width="10" stroke-opacity="1"></use></g></g><g><use xlink:href="#beWlaDHKO" opacity="1" fill="#000000" fill-opacity="0"></use><g><use xlink:href="#beWlaDHKO" opacity="1" fill-opacity="0" stroke="#ffffff" stroke-width="10" stroke-opacity="1"></use></g></g><g><use xlink:href="#eylw5J8cs" opacity="1" fill="#000000" fill-opacity="0"></use><g><use xlink:href="#eylw5J8cs" opacity="1" fill-opacity="0" stroke="#ffffff" stroke-width="10" stroke-opacity="1"></use></g></g><g><use xlink:href="#d3xelRE6w" opacity="1" fill="#000000" fill-opacity="0"></use><g><use xlink:href="#d3xelRE6w" opacity="1" fill-opacity="0" stroke="#ffffff" stroke-width="10" stroke-opacity="1"></use></g></g></g></g></svg>
